<?xml version="1.0" encoding="utf-8"?>
<!-- Generator: Adobe Illustrator 21.0.2, SVG Export Plug-In . SVG Version: 6.00 Build 0)  -->
<svg version="1.1" id="Layer_1" xmlns="http://www.w3.org/2000/svg" xmlns:xlink="http://www.w3.org/1999/xlink" x="0px" y="0px"
	 viewBox="0 0 241.4 91.1" style="enable-background:new 0 0 241.4 91.1;" xml:space="preserve">
<style type="text/css">
	.st0{fill:#027DB8;}
	.st1{fill:#58595B;}
	.st2{fill:#ABACAD;}
</style>
<title>CloudIQLogo</title>
<g>
	<rect x="65.8" y="22.7" class="st0" width="6.4" height="16.6"/>
	<rect x="74.7" y="17.7" class="st0" width="6.4" height="27.8"/>
	<rect x="83.6" y="4.8" class="st0" width="6.4" height="40.6"/>
	<rect x="92.5" class="st0" width="6.4" height="45.5"/>
	<rect x="101.4" class="st0" width="6.4" height="45.5"/>
	<rect x="110.3" y="4.8" class="st0" width="6.4" height="40.6"/>
	<rect x="119.2" y="15.8" class="st0" width="6.4" height="29.7"/>
	<rect x="128" y="14.6" class="st0" width="6.4" height="30.8"/>
	<rect x="136.6" y="22.4" class="st0" width="6.4" height="23"/>
	<rect x="145.5" y="30.6" class="st0" width="6.4" height="10.8"/>
	<path class="st1" d="M44.4,81.8c-0.9,1.3-1.9,2.5-3,3.6c-1.2,1.2-2.6,2.2-4.1,3c-1.6,0.9-3.4,1.5-5.2,2c-2,0.5-4.1,0.8-6.2,0.8
		c-3.6,0-7.1-0.7-10.4-2C9.3,86.6,4.4,81.7,1.9,75.5C0.6,72.2,0,68.6,0,65c0-3.6,0.7-7.1,2-10.4C4.5,48.4,9.4,43.5,15.6,41
		c3.3-1.3,6.7-2,10.3-2c3.5,0,7,0.7,10.3,2.2c1.5,0.7,2.9,1.5,4.2,2.5c1.2,0.9,2.2,2,3.1,3.3L39.3,50c-0.6-0.9-1.3-1.7-2.1-2.4
		c-0.9-0.8-1.9-1.5-3-2.1c-1.2-0.6-2.5-1.1-3.8-1.5c-1.5-0.4-2.9-0.6-4.4-0.6c-3-0.1-5.9,0.5-8.7,1.7c-2.5,1.1-4.7,2.7-6.5,4.7
		c-1.8,2-3.2,4.3-4.1,6.9c-0.9,2.6-1.4,5.4-1.4,8.2c0,2.8,0.5,5.6,1.4,8.2c0.9,2.5,2.3,4.9,4.1,6.9c1.8,2,4,3.6,6.5,4.7
		c2.7,1.2,5.6,1.8,8.6,1.7c2.8,0,5.6-0.6,8.1-1.8c2.6-1.2,4.9-3.2,6.4-5.6L44.4,81.8z"/>
	<path class="st1" d="M53,89.8h-4.8V36.9H53V89.8L53,89.8z"/>
	<path class="st1" d="M93.6,73.5c0,2.3-0.4,4.7-1.3,6.9c-0.8,2-2,3.9-3.6,5.5c-1.6,1.6-3.5,2.8-5.5,3.6c-2.3,0.9-4.7,1.3-7.1,1.3
		c-2.4,0-4.8-0.4-7-1.3c-4.2-1.6-7.5-4.9-9.1-9.1c-1.7-4.4-1.7-9.3,0-13.7c1.7-4.2,5-7.4,9.1-9.1c2.2-0.9,4.6-1.3,7-1.3
		c2.4,0,4.8,0.4,7.1,1.3c4.2,1.6,7.5,4.9,9.1,9.1C93.2,68.8,93.6,71.1,93.6,73.5z M88.6,73.5c0-1.8-0.3-3.5-0.9-5.1
		c-0.5-1.5-1.4-3-2.5-4.2c-1.1-1.2-2.4-2.2-3.9-2.8c-1.6-0.7-3.4-1-5.2-1c-1.8,0-3.5,0.3-5.2,1c-1.5,0.7-2.8,1.6-3.9,2.8
		c-1.1,1.2-1.9,2.7-2.5,4.2c-1.2,3.3-1.2,7,0,10.3c0.5,1.5,1.4,3,2.5,4.2c1.1,1.2,2.4,2.2,3.9,2.8c1.6,0.7,3.4,1,5.2,1
		c1.8,0,3.5-0.3,5.2-1c1.5-0.6,2.8-1.6,3.9-2.8c1.1-1.2,1.9-2.7,2.5-4.2C88.3,77,88.6,75.2,88.6,73.5L88.6,73.5z"/>
	<path class="st1" d="M122.9,89.8c-0.1-0.9-0.2-1.9-0.2-2.9c0-1.1-0.1-2-0.1-2.7h-0.2c-1,2-2.6,3.6-4.6,4.7c-2,1.2-4.3,1.8-6.6,1.8
		c-4.2,0-7.3-1.2-9.4-3.7c-2.1-2.5-3.1-5.7-3.1-9.8V57.1h4.8v18.1c0,1.6,0.1,3.1,0.4,4.7c0.2,1.3,0.8,2.5,1.5,3.6
		c0.7,1,1.6,1.8,2.7,2.3c1.4,0.6,2.8,0.9,4.3,0.8c1.3,0,2.5-0.3,3.7-0.8c1.2-0.5,2.3-1.3,3.2-2.4c1-1.2,1.8-2.5,2.2-4
		c0.6-1.8,0.9-3.8,0.8-5.7V57h4.8v25.6c0,0.9,0,2,0.1,3.4s0.1,2.7,0.2,3.8L122.9,89.8L122.9,89.8z"/>
	<path class="st1" d="M162.1,84.3c-1.3,2.1-3.2,3.7-5.5,4.8c-2.2,1.1-4.5,1.6-6.9,1.6c-2.4,0-4.8-0.4-7-1.3c-2-0.8-3.8-2.1-5.3-3.6
		c-1.5-1.6-2.7-3.4-3.4-5.5c-1.6-4.4-1.6-9.2,0-13.6c0.8-2,1.9-3.9,3.4-5.5c1.5-1.6,3.3-2.8,5.3-3.6c2.2-0.9,4.6-1.4,7-1.3
		c2.4,0,4.8,0.6,6.9,1.6c2.2,1.1,4.1,2.8,5.5,4.9h0.1V36.9h4.8v52.9h-4.8v-5.5L162.1,84.3L162.1,84.3z M137.8,73.5
		c0,1.7,0.3,3.5,0.8,5.1c0.5,1.5,1.3,3,2.4,4.2c1.1,1.2,2.4,2.2,3.9,2.8c1.7,0.7,3.4,1,5.3,1c3.4,0,6.6-1.3,9-3.8
		c1.1-1.2,2-2.6,2.6-4.2c1.3-3.4,1.3-7.1,0-10.4c-0.6-1.6-1.5-3-2.6-4.2c-1.1-1.2-2.5-2.1-4-2.8c-1.6-0.7-3.3-1-5-1
		c-1.8,0-3.6,0.3-5.3,1c-1.5,0.7-2.8,1.6-3.9,2.8c-1.1,1.2-1.9,2.7-2.4,4.2C138,69.9,137.7,71.7,137.8,73.5z"/>
	<path class="st2" d="M181.6,89.8h-6.9V40.3h6.9V89.8L181.6,89.8z"/>
	<path class="st2" d="M241.4,89.8h-29.1c-3.5,0-7.1-0.6-10.4-1.8c-3-1.1-5.8-2.9-8.2-5.1c-2.3-2.3-4.1-5-5.3-8
		c-1.3-3.3-1.9-6.9-1.9-10.5c0-3.5,0.7-7,2-10.3c1.2-3,3.1-5.7,5.4-8c2.3-2.3,5.1-4.1,8.1-5.3c3.3-1.3,6.8-1.9,10.3-1.9
		c3.5,0,7,0.6,10.2,1.9c3,1.2,5.8,3,8.1,5.3c2.3,2.3,4.1,5,5.4,8c1.3,3.3,2,6.7,1.9,10.3c0.1,4.1-0.9,8.1-2.8,11.6
		c-1.8,3.2-4.3,5.9-7.4,7.8V84h13.6L241.4,89.8L241.4,89.8z M194,64.4c0,2.6,0.4,5.2,1.3,7.6c0.8,2.3,2.1,4.4,3.7,6.1
		c1.6,1.7,3.6,3.1,5.7,4.1c4.8,2,10.2,2,15,0c2.2-0.9,4.2-2.3,5.8-4.1c1.6-1.8,2.9-3.9,3.7-6.1c0.9-2.4,1.3-5,1.3-7.6
		c0-2.6-0.4-5.1-1.3-7.5c-0.8-2.3-2-4.3-3.6-6.1c-1.6-1.8-3.6-3.2-5.7-4.2c-7.1-3.3-15.6-1.6-20.9,4.2c-1.6,1.8-2.9,3.9-3.7,6.1
		C194.4,59.3,193.9,61.9,194,64.4z"/>
</g>
</svg>
